# xmcd
# 
# Track frame offsets:
#     150
#     17822
#     37810
#     53431
#     69498
#     86286
#     102405
#     119918
#     139717
#     156721
#     174151
#     190646
#     214956
#     236707
# 
# Disc length: 3436
# 
# Revision: 4
# Processed by: cddbd v1.5.2PL0 Copyright (c) Steve Scherf et al.
# Submitted via: fre:ac v1.0.17
# 
DISCID=bd0d6a0e
DTITLE=LeAnn Rimes - Family
DYEAR=2007
DGENRE=Country
TTITLE0=01 - Family
TTITLE1=02 - Nothin' Better to Do
TTITLE2=03 - Fight
TTITLE3=04 - Good Friend and a Glass of Wine
TTITLE4=05 - Something I Can Feel
TTITLE5=06 - I Want You with Me
TTITLE6=07 - Doesn't Everybody
TTITLE7=08 - Nothing Wrong
TTITLE8=09 - Pretty Things
TTITLE9=10 - Upper Hand
TTITLE10=11 - One Day Too Long
TTITLE11=12 - What I Cannot Change
TTITLE12=13 - Till We Ain't Strangers Anymore
TTITLE13=14 - When You Love Someone Like That
EXTD=
EXTT0=
EXTT1=
EXTT2=
EXTT3=
EXTT4=
EXTT5=
EXTT6=
EXTT7=
EXTT8=
EXTT9=
EXTT10=
EXTT11=
EXTT12=
EXTT13=
PLAYORDER=
